<?xml version="1.0" encoding="utf-8"?>
<!-- Generator: Adobe Illustrator 21.1.0, SVG Export Plug-In . SVG Version: 6.00 Build 0)  -->
<svg version="1.1" xmlns="http://www.w3.org/2000/svg" xmlns:xlink="http://www.w3.org/1999/xlink" x="0px" y="0px"
	 viewBox="0 0 595.2800293 595.2800293" style="enable-background:new 0 0 595.2800293 595.2800293;" xml:space="preserve">
<style type="text/css">
	.st0{opacity:0.93;fill:#1C7DB6;}
	.st1{opacity:0.88;}
	.st2{opacity:0.93;fill:#F9B339;}
	.st3{opacity:0.93;}
	.st4{fill:#643194;}
	.st5{fill:#BC2A7D;}
	.st6{fill:#FFFFFF;}
	.st7{fill:none;}
	.st8{font-family:'MVBoli';}
	.st9{font-size:60px;}
	.st10{font-family:'SegoeScript';}
	.st11{font-size:36px;}
</style>
<g id="Слой_1">
	<g id="Слой_7">
	</g>
	<circle class="st0" cx="297.6756897" cy="269.8108215" r="102.7027054"/>
</g>
<g id="Слой_2" class="st1">
	<circle class="st2" cx="374" cy="202" r="68"/>
</g>
<g id="Слой_4" class="st3">
	<circle class="st4" cx="254.5" cy="245.5" r="86.5"/>
</g>
<g id="Слой_3" class="st3">
	<circle class="st5" cx="332.5" cy="308.5" r="72.5"/>
</g>
<g id="Слой_5">
	<circle class="st0" cx="446" cy="271" r="15"/>
	<circle class="st5" cx="425" cy="334" r="6"/>
	<circle class="st4" cx="319.5" cy="115.5" r="13.5"/>
	<circle class="st5" cx="145" cy="302" r="7"/>
	<circle class="st2" cx="197.5" cy="378.5" r="5.5"/>
	<g id="Слой_6">
		<path class="st6" d="M292,181c-29.2711182,0-53,55.333252-53,98.4610596S262.7288818,343,292,343s53-20.4111328,53-63.5389404
			S321.2711182,181,292,181z M247,244c0.545166-6.1599121,6.5551758-26.079895,15-39
			c7.9319458-12.135376,23.6981201-17.9255371,29-21C275.671936,196.7546387,254.6063843,221.732666,247,244z M292,326
			c-19.3299561,0-35-15.6700439-35-35s15.6700439-35,35-35s35,15.6700439,35,35S311.3299561,326,292,326z"/>
		<rect x="185" y="369.5" class="st7" width="216" height="67.5"/>
		<text transform="matrix(1 0 0 1 199.015625 415.4960938)" class="st8 st9">4 Eggs</text>
		<rect x="136.5" y="427" class="st7" width="338.5" height="51"/>
		<text transform="matrix(1 0 0 1 149.6035156 454.6855469)" class="st10 st11">Учиться весело!</text>
	</g>
</g>
</svg>
