<?xml version="1.0" encoding="utf-8"?>
<!-- Generator: Adobe Illustrator 21.1.0, SVG Export Plug-In . SVG Version: 6.00 Build 0)  -->
<svg version="1.1" xmlns="http://www.w3.org/2000/svg" xmlns:xlink="http://www.w3.org/1999/xlink" x="0px" y="0px"
	 viewBox="0 0 595.3 595.3" style="enable-background:new 0 0 595.3 595.3;" xml:space="preserve">
<style type="text/css">
	.st0{opacity:0.93;fill:#1C7DB6;}
	.st1{opacity:0.88;}
	.st2{opacity:0.93;fill:#F9B339;}
	.st3{opacity:0.93;}
	.st4{fill:#643194;}
	.st5{fill:#BC2A7D;}
	.st6{fill:#FFFFFF;}
	.st7{fill:none;}
	.st8{font-family:'MVBoli';}
	.st9{font-size:60px;}
	.st10{font-family:'SegoeScript';}
	.st11{font-size:36px;}
</style>
<g id="Слой_1">
	<g id="Слой_7">
	</g>
	<circle class="st0" cx="297.7" cy="269.8" r="102.7"/>
</g>
<g id="Слой_2" class="st1">
	<circle class="st2" cx="374" cy="202" r="68"/>
</g>
<g id="Слой_4" class="st3">
	<circle class="st4" cx="254.5" cy="245.5" r="86.5"/>
</g>
<g id="Слой_3" class="st3">
	<circle class="st5" cx="332.5" cy="308.5" r="72.5"/>
</g>
<g id="Слой_5">
	<circle class="st0" cx="446" cy="271" r="15"/>
	<circle class="st5" cx="425" cy="334" r="6"/>
	<circle class="st4" cx="319.5" cy="115.5" r="13.5"/>
	<circle class="st5" cx="145" cy="302" r="7"/>
	<circle class="st2" cx="197.5" cy="378.5" r="5.5"/>
	<g id="Слой_6">
		<path class="st6" d="M292,181c-29.3,0-53,55.3-53,98.5s23.7,63.5,53,63.5s53-20.4,53-63.5S321.3,181,292,181z M247,244
			c0.5-6.2,6.6-26.1,15-39c7.9-12.1,23.7-17.9,29-21C275.7,196.8,254.6,221.7,247,244z M292,326c-19.3,0-35-15.7-35-35
			s15.7-35,35-35s35,15.7,35,35S311.3,326,292,326z"/>
		<rect x="185" y="369.5" class="st7" width="216" height="67.5"/>
		<text transform="matrix(1 0 0 1 199.0156 415.4961)" class="st8 st9">4 Eggs</text>
		<rect x="136.5" y="427" class="st7" width="338.5" height="51"/>
		<text transform="matrix(1 0 0 1 149.6035 454.6855)" class="st10 st11">Учиться весело!</text>
	</g>
</g>
</svg>
